<svg width="60" height="60" viewBox="0 0 60 60" fill="none" xmlns="http://www.w3.org/2000/svg">
<rect width="60" height="60" rx="30" fill="#4E2F96"/>
<path d="M30.0004 9.96307C41.2852 9.96327 50.0355 18.2379 50.0355 29.4025C50.0353 40.567 41.2851 48.8369 30.0004 48.8371C27.9718 48.8371 26.0278 48.5665 24.1996 48.0656C23.844 47.9704 23.4629 47.9954 23.1273 48.1457L19.1508 49.8986C18.1089 50.3594 16.9368 49.6177 16.9017 48.4807L16.7914 44.9142C16.7812 44.4736 16.5807 44.0631 16.2552 43.7726C12.3585 40.2865 9.96423 35.2369 9.96423 29.3967C9.96449 18.2321 18.7155 9.96307 30.0004 9.96307ZM42.0355 24.9191C42.5964 24.0227 41.4951 23.0109 40.6537 23.6516L34.3324 28.4504C33.9067 28.7759 33.3159 28.7757 32.8851 28.4553L28.2015 24.9445C26.7942 23.8927 24.7906 24.258 23.8539 25.7453L17.9681 35.0822C17.4022 35.9788 18.5046 36.986 19.3461 36.3449L25.6674 31.5461C26.0931 31.2207 26.6839 31.2207 27.1146 31.5412L31.7982 35.0519C33.2057 36.1036 35.2092 35.7387 36.1459 34.2512L42.0355 24.9191Z" fill="white"/>
</svg>
