<svg width="60" height="60" viewBox="0 0 60 60" fill="none" xmlns="http://www.w3.org/2000/svg">
<rect width="60" height="60" rx="30" fill="#4E2F96"/>
<path fill-rule="evenodd" clip-rule="evenodd" d="M13.5802 29.6834C22.3258 25.8731 28.1576 23.3611 31.0755 22.1474C39.4068 18.6821 41.138 18.0801 42.2664 18.0603C42.5145 18.0559 43.0694 18.1174 43.4289 18.4091C43.7324 18.6553 43.8159 18.988 43.8558 19.2215C43.8958 19.455 43.9455 19.9869 43.906 20.4025C43.4545 25.1462 41.501 36.6579 40.5071 41.9709C40.0866 44.2191 39.2585 44.9729 38.4569 45.0466C36.7147 45.207 35.3918 43.8953 33.7045 42.7892C31.0641 41.0584 29.5724 39.981 27.0095 38.292C24.0475 36.3402 25.9676 35.2674 27.6556 33.5142C28.0974 33.0553 35.7734 26.0734 35.9219 25.4401C35.9405 25.3609 35.9578 25.0656 35.7824 24.9097C35.6069 24.7538 35.348 24.8071 35.1612 24.8495C34.8964 24.9096 30.6783 27.6976 22.507 33.2134C21.3098 34.0356 20.2253 34.4361 19.2536 34.4151C18.1825 34.392 16.122 33.8095 14.5903 33.3116C12.7115 32.7009 11.2183 32.378 11.3483 31.3408C11.4161 30.8006 12.16 30.2481 13.5802 29.6834Z" fill="white"/>
</svg>
